<?xml version="1.0" encoding="UTF-8"?>
<!DOCTYPE svg PUBLIC "-//W3C//DTD SVG 1.1//EN" "http://www.w3.org/Graphics/SVG/1.1/DTD/svg11.dtd">
<svg xmlns="http://www.w3.org/2000/svg" version="1.1" width="782px" height="800px" style="shape-rendering:geometricPrecision; text-rendering:geometricPrecision; image-rendering:optimizeQuality; fill-rule:evenodd; clip-rule:evenodd" xmlns:xlink="http://www.w3.org/1999/xlink">
<g><path style="opacity:0.999" fill="#312a2b" d="M 391.5,-0.5 C 392.5,-0.5 393.5,-0.5 394.5,-0.5C 484.765,39.2681 567.098,91.1015 641.5,155C 690.762,199.762 737.429,246.928 781.5,296.5C 781.5,299.833 781.5,303.167 781.5,306.5C 770.936,423.753 741.436,536.086 693,643.5C 672.812,686.727 651.478,729.394 629,771.5C 568.6,786.54 507.433,795.874 445.5,799.5C 418.833,799.5 392.167,799.5 365.5,799.5C 290.988,794.334 217.155,783.667 144,767.5C 73.9898,647.14 29.6565,517.807 11,379.5C 7.23318,352.346 3.39984,325.346 -0.5,298.5C -0.5,295.5 -0.5,292.5 -0.5,289.5C 76.1597,197.638 166.16,122.138 269.5,63C 309.603,40.725 350.27,19.5583 391.5,-0.5 Z"/></g>
<g><path style="opacity:1" fill="#fdf301" d="M 391.5,13.5 C 494.825,57.6315 586.825,118.465 667.5,196C 701.728,230.226 735.228,265.06 768,300.5C 759.249,416.076 731.249,526.743 684,632.5C 664.16,675.846 642.994,718.513 620.5,760.5C 493.037,791.869 364.703,795.702 235.5,772C 208.096,767.386 180.763,762.386 153.5,757C 83.1538,636.297 39.3204,506.463 22,367.5C 18.5022,342.852 15.5022,318.186 13,293.5C 99.8673,190.263 203.367,108.429 323.5,48C 346.103,36.199 368.77,24.699 391.5,13.5 Z"/></g>
<g><path style="opacity:1" fill="#30282b" d="M 412.5,95.5 C 420.099,95.2698 427.099,97.1031 433.5,101C 436.883,104.482 438.216,108.649 437.5,113.5C 433.833,113.5 430.167,113.5 426.5,113.5C 426.731,110.215 425.397,107.715 422.5,106C 418.5,105.333 414.5,105.333 410.5,106C 405.632,108.477 405.299,111.477 409.5,115C 415.392,117.307 421.392,119.307 427.5,121C 436.657,124.812 440.49,131.645 439,141.5C 434.684,150.667 427.351,155 417,154.5C 403.144,154.684 395.31,148.017 393.5,134.5C 397.167,134.5 400.833,134.5 404.5,134.5C 405.07,138.912 407.403,142.078 411.5,144C 415.5,144.667 419.5,144.667 423.5,144C 428.579,141.345 429.579,137.678 426.5,133C 418.5,130 410.5,127 402.5,124C 396.017,117.68 394.851,110.513 399,102.5C 402.756,98.5394 407.256,96.2061 412.5,95.5 Z"/></g>
<g><path style="opacity:1" fill="#2f272b" d="M 355.5,99.5 C 357.288,99.2148 358.955,99.5481 360.5,100.5C 370.04,117.748 379.707,134.914 389.5,152C 385.572,153.325 381.572,153.658 377.5,153C 375.248,149.832 373.248,146.499 371.5,143C 363.506,142.524 355.672,143.357 348,145.5C 346.686,149.754 345.853,154.087 345.5,158.5C 341.475,158.816 337.475,158.983 333.5,159C 338.974,139.625 343.641,120.125 347.5,100.5C 350.385,100.806 353.052,100.473 355.5,99.5 Z"/></g>
<g><path style="opacity:1" fill="#2e272b" d="M 315.5,105.5 C 316.675,105.281 317.675,105.614 318.5,106.5C 319.785,109.021 320.452,111.687 320.5,114.5C 315.5,115.833 310.5,117.167 305.5,118.5C 310.035,133.631 315.035,148.631 320.5,163.5C 317.256,165.026 313.923,166.36 310.5,167.5C 305.306,153.251 300.306,138.918 295.5,124.5C 294.667,124.167 293.833,123.833 293,123.5C 288.179,124.941 283.346,126.274 278.5,127.5C 278.244,125.063 277.577,122.729 276.5,120.5C 276.709,119.914 277.043,119.414 277.5,119C 290.303,114.568 302.969,110.068 315.5,105.5 Z"/></g>
<g><path style="opacity:1" fill="#2f282b" d="M 489.5,107.5 C 493.313,108.16 496.979,109.326 500.5,111C 496.92,117.882 494.92,125.048 494.5,132.5C 500.91,134.637 507.244,136.97 513.5,139.5C 516.696,133.099 519.363,126.432 521.5,119.5C 521.833,119.167 522.167,118.833 522.5,118.5C 525.427,119.801 528.427,120.801 531.5,121.5C 526.202,139.77 520.036,157.77 513,175.5C 509.917,174.361 506.917,173.028 504,171.5C 505.642,163.788 508.142,156.288 511.5,149C 504.574,145.246 497.241,142.913 489.5,142C 486.74,148.777 484.073,155.61 481.5,162.5C 478.227,163.037 475.061,162.37 472,160.5C 477.106,142.68 482.94,125.014 489.5,107.5 Z"/></g>
<g><path style="opacity:1" fill="#eee70c" d="M 354.5,113.5 C 355.376,113.369 356.043,113.702 356.5,114.5C 359.96,120.587 363.294,126.754 366.5,133C 361.161,133.882 355.827,134.715 350.5,135.5C 351.833,128.167 353.167,120.833 354.5,113.5 Z"/></g>
<g><path style="opacity:1" fill="#30282b" d="M 553.5,130.5 C 555.977,132.241 558.644,133.741 561.5,135C 562.022,135.561 562.355,136.228 562.5,137C 556.467,148.231 550.301,159.398 544,170.5C 542.334,179.671 546.167,184.671 555.5,185.5C 557.926,185.596 560.093,184.93 562,183.5C 568.833,172 575.667,160.5 582.5,149C 586.075,149.614 589.408,151.114 592.5,153.5C 585.667,165.167 578.833,176.833 572,188.5C 565.582,196.396 557.748,198.23 548.5,194C 543.446,191.611 538.946,188.445 535,184.5C 531.294,179.185 530.627,173.518 533,167.5C 539.858,155.112 546.691,142.779 553.5,130.5 Z"/></g>
<g><path style="opacity:1" fill="#2e272b" d="M 243.5,131.5 C 244.496,131.414 245.329,131.748 246,132.5C 252.44,145.713 258.607,159.047 264.5,172.5C 265.365,173.583 266.365,173.749 267.5,173C 275.287,169.023 283.121,165.189 291,161.5C 292.914,164.298 293.914,167.298 294,170.5C 282.455,175.688 270.955,181.022 259.5,186.5C 251.372,169.743 243.372,152.909 235.5,136C 238.391,134.726 241.058,133.226 243.5,131.5 Z"/></g>
<g><path style="opacity:1" fill="#2f282b" d="M 214.5,147.5 C 222.524,157.372 230.024,167.705 237,178.5C 243.826,188.394 242.659,197.227 233.5,205C 226.93,210.968 219.264,213.301 210.5,212C 207.827,210.999 205.493,209.499 203.5,207.5C 195.167,196.167 186.833,184.833 178.5,173.5C 180.833,171.667 183.167,169.833 185.5,168C 186.5,167.333 187.5,167.333 188.5,168C 195.779,178.946 203.446,189.612 211.5,200C 219.688,203.537 225.854,201.371 230,193.5C 230.667,191.833 230.667,190.167 230,188.5C 222.558,176.726 214.724,165.226 206.5,154C 209.355,151.969 212.022,149.803 214.5,147.5 Z"/></g>
<g><path style="opacity:1" fill="#da261c" d="M 427.5,335.5 C 428.622,334.053 430.122,333.053 432,332.5C 434.386,328.206 433.886,324.373 430.5,321C 429.207,320.51 427.873,320.343 426.5,320.5C 425.623,316.09 427.123,312.757 431,310.5C 432.57,303.482 429.736,299.982 422.5,300C 421.789,298.745 420.956,297.579 420,296.5C 422.608,291.75 421.775,287.584 417.5,284C 415.231,283.242 413.064,283.409 411,284.5C 395.982,267.09 390.982,247.09 396,224.5C 381.123,241.913 370.123,261.58 363,283.5C 362.178,291.555 362.512,299.555 364,307.5C 368.076,318.563 372.242,329.563 376.5,340.5C 364.045,338.242 351.712,335.409 339.5,332C 329.921,326.755 322.754,319.255 318,309.5C 317.874,294.147 318.207,278.814 319,263.5C 316.266,256.723 313.6,250.056 311,243.5C 315.713,244.739 320.213,246.573 324.5,249C 330.709,255.041 336.709,261.208 342.5,267.5C 343.993,265.636 344.66,263.47 344.5,261C 343.417,255.746 341.917,250.58 340,245.5C 339.833,243.167 339.667,240.833 339.5,238.5C 341.22,226.884 341.72,215.217 341,203.5C 339.429,197.859 336.929,192.693 333.5,188C 340.998,189.576 347.998,192.576 354.5,197C 360.5,204.333 366.5,211.667 372.5,219C 374.888,219.865 376.388,219.032 377,216.5C 377.333,206.167 377.667,195.833 378,185.5C 379.598,180.468 382.098,175.968 385.5,172C 390.813,167.35 396.646,163.517 403,160.5C 402.694,162.823 402.028,165.156 401,167.5C 400.333,171.5 400.333,175.5 401,179.5C 404.75,186.002 408.75,192.335 413,198.5C 413.796,203.788 414.963,208.954 416.5,214C 419.212,214.738 421.545,214.071 423.5,212C 429.755,199.735 439.088,191.068 451.5,186C 447.571,190.782 445.405,196.282 445,202.5C 444.667,218.5 444.333,234.5 444,250.5C 442.194,255.378 441.527,260.378 442,265.5C 443.458,266.747 444.958,266.747 446.5,265.5C 453.38,257.122 461.38,249.956 470.5,244C 472.044,242.813 473.711,242.48 475.5,243C 473.014,246.137 471.181,249.637 470,253.5C 469.503,269.901 469.837,286.234 471,302.5C 469.993,308.522 467.993,314.189 465,319.5C 454.861,330.164 442.361,335.497 427.5,335.5 Z"/></g>
<g><path style="opacity:1" fill="#2e272b" d="M 611.5,168.5 C 614.944,170.108 617.61,172.608 619.5,176C 614.406,182.17 609.073,188.17 603.5,194C 615.135,192.967 626.802,192.3 638.5,192C 642.132,194.63 645.465,197.63 648.5,201C 639.826,201.572 631.159,202.239 622.5,203C 621.062,203.219 619.729,203.719 618.5,204.5C 616.289,217.476 614.122,230.476 612,243.5C 608.353,240.687 604.853,237.687 601.5,234.5C 603.628,224.528 605.628,214.528 607.5,204.5C 603.154,204.334 598.821,204.501 594.5,205C 590.29,209.042 586.29,213.208 582.5,217.5C 579.683,215.183 577.016,212.683 574.5,210C 587.041,196.296 599.374,182.462 611.5,168.5 Z"/></g>
<g><path style="opacity:1" fill="#30282b" d="M 161.5,181.5 C 162.78,191.643 163.447,201.976 163.5,212.5C 176.948,214.463 190.281,216.963 203.5,220C 200.462,222.703 197.795,225.703 195.5,229C 185.064,227.977 174.73,226.144 164.5,223.5C 164.173,228.214 164.507,232.88 165.5,237.5C 169.5,240.833 173.167,244.5 176.5,248.5C 174.157,251.207 171.823,253.874 169.5,256.5C 155.682,243.85 142.016,231.016 128.5,218C 130.959,215.554 133.292,213.054 135.5,210.5C 141.797,215.462 147.797,220.795 153.5,226.5C 153.833,225.167 154.167,223.833 154.5,222.5C 153.634,212.599 152.634,202.766 151.5,193C 155.416,189.59 158.749,185.757 161.5,181.5 Z"/></g>
<g><path style="opacity:1" fill="#2f282b" d="M 662.5,210.5 C 665.161,213.171 667.494,216.171 669.5,219.5C 658.522,227.977 647.689,236.643 637,245.5C 634.522,252.725 636.688,258.225 643.5,262C 646.167,262.667 648.833,262.667 651.5,262C 662.011,254.152 672.511,246.319 683,238.5C 686.049,240.41 688.549,242.91 690.5,246C 681.167,253.333 671.833,260.667 662.5,268C 649.872,277.306 639.038,275.473 630,262.5C 623.52,252.8 624.02,243.634 631.5,235C 641.903,226.814 652.236,218.647 662.5,210.5 Z"/></g>
<g><path style="opacity:1" fill="#55382f" d="M 212.5,219.5 C 225.955,220.83 238.288,225.664 249.5,234C 257.829,242.98 261.829,253.646 261.5,266C 259.3,286.496 259.133,306.996 261,327.5C 264.509,344.383 273.342,357.549 287.5,367C 310.184,364.253 326.35,373.086 336,393.5C 339.409,404.417 337.576,414.25 330.5,423C 320.846,428.601 313.346,426.435 308,416.5C 306.622,412.408 306.622,408.408 308,404.5C 316.334,396.819 315.001,391.819 304,389.5C 285.302,393.863 278.636,405.53 284,424.5C 290.397,444.115 303.564,451.282 323.5,446C 330.659,444.173 336.826,440.673 342,435.5C 345.658,429.852 348.491,423.852 350.5,417.5C 357.872,422.924 360.705,430.257 359,439.5C 358.294,444.99 356.961,450.323 355,455.5C 349.078,466.343 343.411,477.343 338,488.5C 337.486,499.086 339.653,509.086 344.5,518.5C 338.634,519.399 333.301,521.565 328.5,525C 320.926,534.152 313.592,543.485 306.5,553C 292.51,563.332 277.844,572.665 262.5,581C 250.833,581.667 239.167,581.667 227.5,581C 215.481,578.127 210.647,570.627 213,558.5C 216.452,548.104 223.618,544.271 234.5,547C 239.268,550.706 239.601,554.706 235.5,559C 240.745,567.303 246.245,567.469 252,559.5C 254.732,555.759 257.066,551.759 259,547.5C 263.52,537.368 260.52,531.368 250,529.5C 239.32,532.06 228.82,535.227 218.5,539C 207.776,541.588 197.776,539.921 188.5,534C 182.723,522.857 185.39,514.191 196.5,508C 207.253,505.419 211.419,509.586 209,520.5C 213.262,524.201 217.762,524.367 222.5,521C 234.683,514.053 234.349,507.719 221.5,502C 203.919,503.712 186.586,502.379 169.5,498C 153.799,491.94 146.633,480.44 148,463.5C 145.634,453.486 140.467,445.319 132.5,439C 142.3,438.65 150.134,442.483 156,450.5C 160.886,458.773 167.052,465.939 174.5,472C 185.761,472.414 189.928,467.247 187,456.5C 173.913,446.419 165.247,433.419 161,417.5C 160.333,409.833 160.333,402.167 161,394.5C 165.271,378.267 167.771,361.767 168.5,345C 168.418,341.765 167.918,338.598 167,335.5C 164.325,329.837 161.991,324.17 160,318.5C 170.225,323.93 176.891,332.263 180,343.5C 181.837,356.197 183.837,368.864 186,381.5C 192.928,396.169 202.428,409.002 214.5,420C 217.141,422.209 219.975,422.709 223,421.5C 223.701,418.072 223.368,414.738 222,411.5C 204.564,386.952 199.231,359.952 206,330.5C 215.254,314.327 224.254,297.994 233,281.5C 238.041,256.789 231.207,236.122 212.5,219.5 Z"/></g>
<g><path style="opacity:1" fill="#55382f" d="M 567.5,218.5 C 568.239,218.369 568.906,218.536 569.5,219C 550.385,235.677 543.218,256.51 548,281.5C 555.225,296.286 563.225,310.619 572,324.5C 574.435,329.236 576.101,334.236 577,339.5C 579.472,357.867 577.138,375.534 570,392.5C 566.735,399.421 563.068,406.087 559,412.5C 555.648,422.829 558.482,425.329 567.5,420C 580.373,408.399 589.873,394.566 596,378.5C 597.51,365.751 599.51,353.085 602,340.5C 605.883,330.618 612.55,323.284 622,318.5C 619.486,323.205 617.153,328.205 615,333.5C 613.533,337.37 612.699,341.37 612.5,345.5C 613.276,362.096 615.776,378.429 620,394.5C 623.9,420.355 615.4,441.022 594.5,456.5C 590.839,463.346 592.506,468.513 599.5,472C 606.193,473.573 611.359,471.406 615,465.5C 619.783,458.383 624.949,451.55 630.5,445C 635.431,440.694 641.097,439.028 647.5,440C 641.984,444.865 637.817,450.698 635,457.5C 633.334,466.184 631.667,474.85 630,483.5C 627.196,488.604 623.363,492.77 618.5,496C 605.273,500.771 591.606,503.271 577.5,503.5C 571.173,502.722 564.839,502.555 558.5,503C 547.029,508.405 546.696,514.405 557.5,521C 567.708,526.642 572.875,523.809 573,512.5C 574.713,507.962 577.88,506.462 582.5,508C 592.511,512.185 596.678,519.685 595,530.5C 591.386,536.063 586.219,539.23 579.5,540C 574.167,540.667 568.833,540.667 563.5,540C 552.894,536.02 542.06,532.853 531,530.5C 526.741,530.296 523.408,531.963 521,535.5C 520.209,539.926 520.543,544.259 522,548.5C 525.109,553.94 528.609,559.107 532.5,564C 538.312,566.915 542.646,565.415 545.5,559.5C 541.009,551.918 543.342,547.585 552.5,546.5C 563.475,547.544 568.808,553.711 568.5,565C 568.264,573.577 563.931,578.91 555.5,581C 544.907,582.595 534.24,582.928 523.5,582C 519.123,581.812 515.123,580.479 511.5,578C 497.645,569.574 484.312,560.407 471.5,550.5C 465.919,541.184 459.252,532.684 451.5,525C 446.921,522.027 441.921,520.027 436.5,519C 441.437,509.421 443.603,499.254 443,488.5C 435.517,475.201 428.85,461.534 423,447.5C 420.312,438.377 421.312,429.711 426,421.5C 427.351,419.981 428.851,418.648 430.5,417.5C 433.414,431.905 441.748,441.405 455.5,446C 475.895,452.386 489.729,445.552 497,425.5C 502.637,406.279 495.97,394.279 477,389.5C 465.552,393.186 464.552,398.853 474,406.5C 475.386,418.098 470.386,424.765 459,426.5C 448.273,424.083 443.107,417.249 443.5,406C 444.503,386.309 454.503,373.976 473.5,369C 479.833,368.667 486.167,368.333 492.5,368C 510.305,356.913 519.805,340.747 521,319.5C 521.536,301.976 521.036,284.476 519.5,267C 519.749,245.415 530.083,231.081 550.5,224C 556.333,222.3 562,220.467 567.5,218.5 Z"/></g>
<g><path style="opacity:1" fill="#f7c201" d="M 427.5,335.5 C 427.245,339.401 427.912,343.068 429.5,346.5C 428.671,350.154 427.171,353.487 425,356.5C 425.108,360.157 425.108,363.823 425,367.5C 423.197,368.313 421.697,369.48 420.5,371C 417.449,380.82 413.616,390.32 409,399.5C 406.781,402.361 403.947,404.361 400.5,405.5C 399.63,408.96 398.963,412.46 398.5,416C 398.528,417.07 398.861,417.903 399.5,418.5C 393.013,419.654 386.346,419.821 379.5,419C 378.619,418.292 377.953,417.458 377.5,416.5C 377.828,411.125 377.495,405.792 376.5,400.5C 366.169,394.837 362.002,386.171 364,374.5C 367.195,377.858 371.028,380.191 375.5,381.5C 377.889,380.398 379.723,378.731 381,376.5C 381.499,367.146 381.166,357.812 380,348.5C 379.304,345.562 378.138,342.896 376.5,340.5C 372.242,329.563 368.076,318.563 364,307.5C 362.512,299.555 362.178,291.555 363,283.5C 370.123,261.58 381.123,241.913 396,224.5C 390.982,247.09 395.982,267.09 411,284.5C 413.064,283.409 415.231,283.242 417.5,284C 421.775,287.584 422.608,291.75 420,296.5C 420.956,297.579 421.789,298.745 422.5,300C 429.736,299.982 432.57,303.482 431,310.5C 427.123,312.757 425.623,316.09 426.5,320.5C 427.873,320.343 429.207,320.51 430.5,321C 433.886,324.373 434.386,328.206 432,332.5C 430.122,333.053 428.622,334.053 427.5,335.5 Z"/></g>
<g><path style="opacity:1" fill="#2f272b" d="M 101.5,246.5 C 121.656,249.865 141.656,253.865 161.5,258.5C 159.869,262.121 157.535,265.121 154.5,267.5C 150.234,266.144 145.901,265.644 141.5,266C 137.576,271.85 133.909,277.85 130.5,284C 132.968,287.772 135.301,291.605 137.5,295.5C 135.937,298.957 134.104,302.29 132,305.5C 120.333,289.833 108.667,274.167 97,258.5C 96.3333,257.167 96.3333,255.833 97,254.5C 99.1569,252.183 100.657,249.516 101.5,246.5 Z"/></g>
<g><path style="opacity:1" fill="#f1ea0a" d="M 110.5,258.5 C 117.448,260.09 124.448,261.423 131.5,262.5C 129.809,267.547 127.309,272.213 124,276.5C 119.239,270.619 114.739,264.619 110.5,258.5 Z"/></g>
<g><path style="opacity:1" fill="#2e272b" d="M 701.5,266.5 C 702.675,266.281 703.675,266.614 704.5,267.5C 706.706,272.079 709.039,276.579 711.5,281C 701.645,289.432 691.978,298.099 682.5,307C 695.174,305.532 707.674,303.032 720,299.5C 722.89,304.114 725.39,308.947 727.5,314C 726.728,315.221 725.728,316.221 724.5,317C 708.922,324.706 693.422,332.539 678,340.5C 676.5,337.5 675,334.5 673.5,331.5C 686.5,324.667 699.5,317.833 712.5,311C 698.223,313.983 683.89,317.15 669.5,320.5C 666.347,317.858 664.514,314.525 664,310.5C 674.833,301 685.667,291.5 696.5,282C 683.856,287.82 671.189,293.987 658.5,300.5C 656.347,298.206 654.68,295.54 653.5,292.5C 669.527,283.821 685.527,275.154 701.5,266.5 Z"/></g>
<g><path style="opacity:1" fill="#2e272b" d="M 79.5,282.5 C 82.7568,283.462 85.7568,284.962 88.5,287C 85.1072,295.119 81.4405,303.119 77.5,311C 80.7105,312.852 84.0439,314.519 87.5,316C 88.5,316.667 89.5,316.667 90.5,316C 93.7052,309.09 97.0385,302.257 100.5,295.5C 102.5,296.5 104.5,297.5 106.5,298.5C 107.614,299.723 107.781,301.056 107,302.5C 104.402,308.131 101.902,313.797 99.5,319.5C 99.8333,320.167 100.167,320.833 100.5,321.5C 107.06,324.407 113.56,327.407 120,330.5C 119.456,333.791 118.289,336.957 116.5,340C 99.0471,333.283 81.7137,325.949 64.5,318C 70.1992,306.438 75.1992,294.605 79.5,282.5 Z"/></g>
<g><path style="opacity:1" fill="#fdf401" d="M 411.5,285.5 C 419.288,285.746 420.954,288.913 416.5,295C 409.474,294.759 407.807,291.593 411.5,285.5 Z"/></g>
<g><path style="opacity:1" fill="#fdf301" d="M 421.5,302.5 C 427.168,301.671 429.668,304.005 429,309.5C 426,313.5 423,313.5 420,309.5C 419.167,306.829 419.667,304.496 421.5,302.5 Z"/></g>
<g><path style="opacity:1" fill="#fdf401" d="M 424.5,322.5 C 429.665,322.162 431.831,324.495 431,329.5C 428.048,333.482 425.048,333.482 422,329.5C 421.333,328.167 421.333,326.833 422,325.5C 423.045,324.627 423.878,323.627 424.5,322.5 Z"/></g>
<g><path style="opacity:1" fill="#fdf301" d="M 421.5,342.5 C 427.643,343.026 428.976,345.86 425.5,351C 420.504,351.664 418.67,349.498 420,344.5C 420.717,343.956 421.217,343.289 421.5,342.5 Z"/></g>
<g><path style="opacity:1" fill="#2d252b" d="M 690.5,364.5 C 692.941,369.494 694.607,374.828 695.5,380.5C 700.511,380.334 705.511,380.501 710.5,381C 707,383.833 703.5,386.667 700,389.5C 700.392,394.991 701.392,400.324 703,405.5C 699.31,402.309 695.477,399.309 691.5,396.5C 687.833,399.167 684.167,401.833 680.5,404.5C 680.189,399.72 681.189,395.054 683.5,390.5C 680.006,387.176 676.339,384.009 672.5,381C 677.202,380.828 681.868,380.328 686.5,379.5C 688.245,374.6 689.578,369.6 690.5,364.5 Z"/></g>
<g><path style="opacity:1" fill="#2d252b" d="M 89.5,382.5 C 94.1667,383.167 98.8333,383.833 103.5,384.5C 99.5373,387.129 95.8706,390.129 92.5,393.5C 94.617,398.001 95.7837,402.668 96,407.5C 92.3161,404.828 88.6494,402.161 85,399.5C 81.064,401.765 77.3973,404.432 74,407.5C 74.2835,403.124 75.1168,398.791 76.5,394.5C 74.119,390.291 70.7857,386.958 66.5,384.5C 71.1667,383.833 75.8333,383.167 80.5,382.5C 81.8411,377.473 83.3411,372.473 85,367.5C 86.4053,372.548 87.9053,377.548 89.5,382.5 Z"/></g>
<g><path style="opacity:1" fill="#9a9420" d="M 80.5,382.5 C 75.8333,383.167 71.1667,383.833 66.5,384.5C 65.7109,384.217 65.0442,383.717 64.5,383C 69.8229,382.501 75.1563,382.334 80.5,382.5 Z"/></g>
<g><path style="opacity:1" fill="#9a9420" d="M 89.5,382.5 C 94.8437,382.334 100.177,382.501 105.5,383C 104.956,383.717 104.289,384.217 103.5,384.5C 98.8333,383.833 94.1667,383.167 89.5,382.5 Z"/></g>
<g><path style="opacity:1" fill="#56392f" d="M 377.5,416.5 C 377.953,417.458 378.619,418.292 379.5,419C 386.346,419.821 393.013,419.654 399.5,418.5C 402.173,416.494 404.506,414.161 406.5,411.5C 411.263,414.609 411.596,418.109 407.5,422C 404.42,424.29 401.253,426.457 398,428.5C 397.333,430.5 397.333,432.5 398,434.5C 403.653,444.115 405.653,454.448 404,465.5C 402.447,480.709 399.78,495.709 396,510.5C 395.667,518.167 395.333,525.833 395,533.5C 390.709,540.07 386.709,539.737 383,532.5C 383.572,517.554 381.905,502.887 378,488.5C 375.543,475.934 374.543,463.267 375,450.5C 375.867,445.232 377.534,440.232 380,435.5C 380.667,432.833 380.667,430.167 380,427.5C 374.972,425.423 371.139,422.09 368.5,417.5C 368.67,414.796 370.003,413.129 372.5,412.5C 374.165,413.823 375.832,415.156 377.5,416.5 Z"/></g>
<g><path style="opacity:1" fill="#f8ef05" d="M 258.5,420.5 C 259.649,420.791 260.316,421.624 260.5,423C 262.18,440.025 269.18,454.358 281.5,466C 295.315,474.777 310.148,476.943 326,472.5C 324.337,475.498 321.837,477.998 318.5,480C 297.222,492.144 279.056,488.644 264,469.5C 256.862,456.361 254.529,442.361 257,427.5C 257.977,425.26 258.477,422.927 258.5,420.5 Z"/></g>
<g><path style="opacity:1" fill="#f9f005" d="M 520.5,420.5 C 521.586,420.62 522.253,421.287 522.5,422.5C 528.341,443.285 524.341,461.785 510.5,478C 490.883,491.69 472.217,490.357 454.5,474C 489.623,480.521 511.123,466.355 519,431.5C 519.936,427.886 520.436,424.22 520.5,420.5 Z"/></g>
<g><path style="opacity:1" fill="#2e272b" d="M 110.5,454.5 C 111.978,454.238 113.311,454.571 114.5,455.5C 115.551,458.757 116.218,462.09 116.5,465.5C 103.768,467.213 91.1015,469.379 78.5,472C 68.9752,477.645 67.9752,484.645 75.5,493C 90.6739,492.801 105.674,490.967 120.5,487.5C 120.952,490.876 121.618,494.209 122.5,497.5C 108.178,500.997 93.6781,503.664 79,505.5C 70.5449,504.377 65.2116,499.71 63,491.5C 57.0318,473.579 63.1985,463.079 81.5,460C 91.3824,458.578 101.049,456.745 110.5,454.5 Z"/></g>
<g><path style="opacity:1" fill="#2e262b" d="M 668.5,455.5 C 686.883,458.577 705.217,461.91 723.5,465.5C 723.833,466 724.167,466.5 724.5,467C 724.079,470.407 723.079,473.574 721.5,476.5C 708.344,481.716 695.344,487.216 682.5,493C 694.525,495.105 706.525,497.272 718.5,499.5C 718.002,502.487 717.502,505.487 717,508.5C 716.586,508.957 716.086,509.291 715.5,509.5C 697.906,506.015 680.239,502.848 662.5,500C 662.041,496.273 662.041,492.439 662.5,488.5C 676.834,483.833 690.834,478.333 704.5,472C 692.814,470.108 681.148,468.108 669.5,466C 668.484,465.481 667.818,464.647 667.5,463.5C 668.269,460.885 668.603,458.219 668.5,455.5 Z"/></g>
<g><path style="opacity:1" fill="#2f272b" d="M 121.5,503.5 C 122.5,503.5 123.5,503.5 124.5,503.5C 125.47,507.219 126.304,510.886 127,514.5C 117.458,525.04 108.291,535.873 99.5,547C 111.397,543.426 123.397,539.926 135.5,536.5C 136.374,539.789 137.041,543.123 137.5,546.5C 120.055,551.759 102.722,557.426 85.5,563.5C 82.6298,560.051 81.4632,556.051 82,551.5C 90.9522,541.093 99.7855,530.593 108.5,520C 97.037,522.763 85.7037,526.263 74.5,530.5C 72.207,527.636 70.8737,524.302 70.5,520.5C 87.7838,515.405 104.784,509.739 121.5,503.5 Z"/></g>
<g><path style="opacity:1" fill="#2f282b" d="M 705.5,511.5 C 707.5,511.5 709.5,511.5 711.5,511.5C 710.5,515.5 709.5,519.5 708.5,523.5C 703.57,523.197 698.737,523.531 694,524.5C 691.733,531.136 689.566,537.802 687.5,544.5C 691.049,547.779 694.382,551.279 697.5,555C 696.333,558.5 695.167,562 694,565.5C 678.593,552.215 663.093,539.048 647.5,526C 649.034,522.399 650.367,518.732 651.5,515C 669.694,514.431 687.694,513.264 705.5,511.5 Z"/></g>
<g><path style="opacity:1" fill="#f6ef05" d="M 661.5,525.5 C 668.989,524.344 676.655,524.178 684.5,525C 682.965,529.798 680.965,534.298 678.5,538.5C 673.099,533.759 667.433,529.426 661.5,525.5 Z"/></g>
<g><path style="opacity:1" fill="#4d474b" d="M 447.5,545.5 C 447.5,544.167 446.833,543.5 445.5,543.5C 447.331,541.251 449.664,540.085 452.5,540C 450.7,541.812 449.033,543.645 447.5,545.5 Z"/></g>
<g><path style="opacity:1" fill="#241f1e" d="M 363.5,544.5 C 356.368,548.137 351.535,553.804 349,561.5C 346.761,556.764 343.928,552.431 340.5,548.5C 341.675,548.719 342.675,548.386 343.5,547.5C 345.177,545.46 346.844,543.46 348.5,541.5C 350.895,543.944 353.062,546.61 355,549.5C 356.833,547.667 358.667,545.833 360.5,544C 361.749,543.26 362.749,543.427 363.5,544.5 Z"/></g>
<g><path style="opacity:1" fill="#7d776a" d="M 335.5,544.5 C 334.5,544.5 333.5,544.5 332.5,544.5C 332.5,545.833 332.5,547.167 332.5,548.5C 330.752,545.569 328.752,542.736 326.5,540C 330.003,540.418 333.003,541.918 335.5,544.5 Z"/></g>
<g><path style="opacity:1" fill="#f7f7f7" d="M 445.5,543.5 C 446.833,543.5 447.5,544.167 447.5,545.5C 447.5,545.833 447.5,546.167 447.5,546.5C 446.883,546.611 446.383,546.944 446,547.5C 445.833,549 445.667,550.5 445.5,552C 445.336,554.544 446.003,556.71 447.5,558.5C 448.158,559.793 448.492,561.293 448.5,563C 448.664,565.544 447.997,567.71 446.5,569.5C 445.373,570.122 444.373,570.955 443.5,572C 407.5,572.667 371.5,572.667 335.5,572C 334.627,570.955 333.627,570.122 332.5,569.5C 331.662,569.158 331.328,568.492 331.5,567.5C 331.395,563.452 331.728,559.452 332.5,555.5C 332.5,553.167 332.5,550.833 332.5,548.5C 332.5,547.167 332.5,545.833 332.5,544.5C 333.5,544.5 334.5,544.5 335.5,544.5C 337.749,545.08 339.415,546.413 340.5,548.5C 343.928,552.431 346.761,556.764 349,561.5C 351.535,553.804 356.368,548.137 363.5,544.5C 369.16,549.81 373.326,556.144 376,563.5C 376.841,558.155 379.008,553.488 382.5,549.5C 384.544,548.969 386.211,547.802 387.5,546C 388.793,545.51 390.127,545.343 391.5,545.5C 394.089,546.419 396.089,548.086 397.5,550.5C 399.803,554.225 401.637,558.225 403,562.5C 405.232,555.865 409.065,550.365 414.5,546C 415.833,545.333 417.167,545.333 418.5,546C 419.705,547.376 421.038,548.542 422.5,549.5C 423.5,549.833 424.167,550.5 424.5,551.5C 426.575,554.646 428.408,557.979 430,561.5C 431.262,556.626 433.762,552.626 437.5,549.5C 439.443,546.529 442.109,544.529 445.5,543.5 Z"/></g>
<g><path style="opacity:1" fill="#201b1a" d="M 382.5,549.5 C 379.008,553.488 376.841,558.155 376,563.5C 373.326,556.144 369.16,549.81 363.5,544.5C 366.056,545.543 368.223,547.21 370,549.5C 371.61,547.269 373.443,545.269 375.5,543.5C 377.86,545.662 380.193,547.662 382.5,549.5 Z"/></g>
<g><path style="opacity:1" fill="#5c595b" d="M 391.5,545.5 C 390.127,545.343 388.793,545.51 387.5,546C 386.211,547.802 384.544,548.969 382.5,549.5C 384.199,546.804 386.533,544.804 389.5,543.5C 390.522,543.855 391.189,544.522 391.5,545.5 Z"/></g>
<g><path style="opacity:1" fill="#272221" d="M 422.5,549.5 C 421.038,548.542 419.705,547.376 418.5,546C 417.167,545.333 415.833,545.333 414.5,546C 409.065,550.365 405.232,555.865 403,562.5C 401.637,558.225 399.803,554.225 397.5,550.5C 399.118,548.215 401.118,546.215 403.5,544.5C 405.395,545.973 407.061,547.64 408.5,549.5C 410.884,547.115 413.55,545.115 416.5,543.5C 419.545,544.544 421.545,546.544 422.5,549.5 Z"/></g>
<g><path style="opacity:1" fill="#1f191b" d="M 437.5,549.5 C 433.762,552.626 431.262,556.626 430,561.5C 428.408,557.979 426.575,554.646 424.5,551.5C 426.433,549.063 428.6,546.729 431,544.5C 432.789,546.865 434.956,548.532 437.5,549.5 Z"/></g>
<g><path style="opacity:1" fill="#362f32" d="M 447.5,546.5 C 446.257,550.484 446.257,554.484 447.5,558.5C 446.003,556.71 445.336,554.544 445.5,552C 445.667,550.5 445.833,549 446,547.5C 446.383,546.944 446.883,546.611 447.5,546.5 Z"/></g>
<g><path style="opacity:1" fill="#2f282b" d="M 647.5,550.5 C 659.762,551.214 670.262,555.881 679,564.5C 684.923,571.885 685.923,579.885 682,588.5C 678.06,596.252 673.56,603.585 668.5,610.5C 652.136,601.656 636.136,592.323 620.5,582.5C 625.134,574.037 629.967,565.704 635,557.5C 638.739,554.219 642.905,551.885 647.5,550.5 Z"/></g>
<g><path style="opacity:1" fill="#2f282b" d="M 138.5,549.5 C 139.675,549.281 140.675,549.614 141.5,550.5C 142.833,553.167 144.167,555.833 145.5,558.5C 145.291,559.086 144.957,559.586 144.5,560C 146.625,563.082 148.625,566.249 150.5,569.5C 141.5,580.833 132.5,592.167 123.5,603.5C 136.061,601.283 148.728,598.449 161.5,595C 163.167,594.333 164.833,594.333 166.5,595C 177.121,607.628 187.788,620.295 198.5,633C 196.976,636.209 194.643,638.209 191.5,639C 185.354,631.353 179.021,623.853 172.5,616.5C 168.981,619.096 165.648,621.929 162.5,625C 169.065,631.728 175.065,638.895 180.5,646.5C 178.47,648.607 176.303,650.607 174,652.5C 168.294,645.084 162.127,638.084 155.5,631.5C 151.356,634.476 147.356,637.643 143.5,641C 149.646,648.78 156.146,656.28 163,663.5C 162.293,666.413 160.46,668.746 157.5,670.5C 147.823,660.155 138.49,649.488 129.5,638.5C 142.328,627.175 155.328,616.009 168.5,605C 150.704,608.561 132.87,612.394 115,616.5C 111.829,613.981 109.329,610.814 107.5,607C 118.771,591.14 130.771,575.807 143.5,561C 127.215,567.975 111.215,575.808 95.5,584.5C 93.5797,581.661 91.9131,578.661 90.5,575.5C 90.9767,574.522 91.6433,573.689 92.5,573C 108.051,565.392 123.384,557.559 138.5,549.5 Z"/></g>
<g><path style="opacity:1" fill="#faf103" d="M 646.5,561.5 C 658.069,562.199 667.235,567.199 674,576.5C 674.652,579.594 674.318,582.594 673,585.5C 670.833,589.167 668.667,592.833 666.5,596.5C 655.372,590.534 644.372,584.367 633.5,578C 636.321,571.13 640.654,565.63 646.5,561.5 Z"/></g>
<g><path style="opacity:1" fill="#7d7566" d="M 332.5,555.5 C 331.728,559.452 331.395,563.452 331.5,567.5C 328.92,563.355 329.253,559.355 332.5,555.5 Z"/></g>
<g><path style="opacity:1" fill="#96938f" d="M 332.5,569.5 C 333.627,570.122 334.627,570.955 335.5,572C 371.5,572.667 407.5,572.667 443.5,572C 444.373,570.955 445.373,570.122 446.5,569.5C 446.262,571.404 445.262,572.738 443.5,573.5C 407.5,573.5 371.5,573.5 335.5,573.5C 333.738,572.738 332.738,571.404 332.5,569.5 Z"/></g>
<g><path style="opacity:1" fill="#211c21" d="M 335.5,573.5 C 371.5,573.5 407.5,573.5 443.5,573.5C 443.5,575.5 443.5,577.5 443.5,579.5C 439.173,579.016 435.173,579.682 431.5,581.5C 431.5,581.167 431.5,580.833 431.5,580.5C 404.5,579.167 377.5,579.167 350.5,580.5C 350.5,581.167 350.5,581.833 350.5,582.5C 349.596,581.791 349.263,580.791 349.5,579.5C 344.833,579.5 340.167,579.5 335.5,579.5C 335.5,577.5 335.5,575.5 335.5,573.5 Z"/></g>
<g><path style="opacity:1" fill="#615e5f" d="M 336.5,574.5 C 371.833,574.5 407.167,574.5 442.5,574.5C 442.5,575.833 442.5,577.167 442.5,578.5C 407.167,578.5 371.833,578.5 336.5,578.5C 336.5,577.167 336.5,575.833 336.5,574.5 Z"/></g>
<g><path style="opacity:1" fill="#7e7c7b" d="M 350.5,580.5 C 377.5,579.167 404.5,579.167 431.5,580.5C 422.167,580.5 412.833,580.5 403.5,580.5C 403.433,581.959 403.766,583.292 404.5,584.5C 403.833,584.5 403.167,584.5 402.5,584.5C 402.5,583.167 402.5,581.833 402.5,580.5C 385.167,580.5 367.833,580.5 350.5,580.5 Z"/></g>
<g><path style="opacity:1" fill="#e1e0de" d="M 350.5,580.5 C 367.833,580.5 385.167,580.5 402.5,580.5C 402.5,581.833 402.5,583.167 402.5,584.5C 400.497,590.001 396.664,593.668 391,595.5C 389.541,595.192 388.374,594.525 387.5,593.5C 386.415,591.413 384.749,590.08 382.5,589.5C 380.376,587.941 378.709,585.941 377.5,583.5C 374.31,589.527 369.476,593.527 363,595.5C 355.894,593.887 351.727,589.554 350.5,582.5C 350.5,581.833 350.5,581.167 350.5,580.5 Z"/></g>
<g><path style="opacity:1" fill="#eae9e9" d="M 431.5,580.5 C 431.5,580.833 431.5,581.167 431.5,581.5C 431.598,583.553 430.931,585.22 429.5,586.5C 427.167,588.167 425.167,590.167 423.5,592.5C 419.751,596.367 416.084,596.367 412.5,592.5C 411.415,590.413 409.749,589.08 407.5,588.5C 405.738,587.738 404.738,586.404 404.5,584.5C 403.766,583.292 403.433,581.959 403.5,580.5C 412.833,580.5 422.167,580.5 431.5,580.5 Z"/></g>
<g><path style="opacity:1" fill="#4c473c" d="M 407.5,588.5 C 409.749,589.08 411.415,590.413 412.5,592.5C 410.251,591.92 408.585,590.587 407.5,588.5 Z"/></g>
<g><path style="opacity:1" fill="#2f282b" d="M 617.5,587.5 C 633.054,598.048 648.054,609.381 662.5,621.5C 660.458,625.2 657.792,628.2 654.5,630.5C 640.502,628.463 626.502,626.963 612.5,626C 622.167,633.667 631.833,641.333 641.5,649C 639.66,651.669 637.66,654.169 635.5,656.5C 620.344,645.497 605.677,633.997 591.5,622C 593.298,618.914 595.464,616.081 598,613.5C 612.417,615.657 626.917,617.157 641.5,618C 632,610.5 622.5,603 613,595.5C 614.141,592.802 615.641,590.135 617.5,587.5 Z"/></g>
<g><path style="opacity:1" fill="#4d483c" d="M 382.5,589.5 C 384.749,590.08 386.415,591.413 387.5,593.5C 385.251,592.92 383.585,591.587 382.5,589.5 Z"/></g>
<g><path style="opacity:1" fill="#5a5222" d="M 429.5,586.5 C 428.5,589.5 426.5,591.5 423.5,592.5C 425.167,590.167 427.167,588.167 429.5,586.5 Z"/></g>
<g><path style="opacity:1" fill="#1d8de1" d="M 316.5,603.5 C 327.114,602.465 337.281,604.132 347,608.5C 361.646,602.213 376.479,601.88 391.5,607.5C 406.669,601.862 421.669,602.195 436.5,608.5C 453.045,601.061 469.045,602.061 484.5,611.5C 482.914,614.341 481.08,617.007 479,619.5C 464.56,610.322 450.06,610.322 435.5,619.5C 420.751,610.285 406.085,610.285 391.5,619.5C 376.728,611.62 362.061,611.62 347.5,619.5C 332.911,610.292 318.411,610.292 304,619.5C 301.971,616.971 300.138,614.304 298.5,611.5C 304.324,608.251 310.324,605.584 316.5,603.5 Z"/></g>
<g><path style="opacity:1" fill="#1e8ee0" d="M 365.5,623.5 C 375.778,622.537 385.611,624.204 395,628.5C 410.859,621.426 426.359,622.093 441.5,630.5C 439.667,633.5 437.833,636.5 436,639.5C 422.532,632.849 409.032,632.849 395.5,639.5C 380.911,630.408 366.411,630.408 352,639.5C 349.971,636.971 348.138,634.304 346.5,631.5C 352.61,628.027 358.943,625.361 365.5,623.5 Z"/></g>
<g><path style="opacity:1" fill="#30282b" d="M 588.5,624.5 C 591.056,625.543 593.223,627.21 595,629.5C 599.667,634.833 604.333,640.167 609,645.5C 625.657,662.751 623.157,676.918 601.5,688C 595.903,689.091 590.57,688.424 585.5,686C 575.277,675.613 565.61,664.78 556.5,653.5C 558.549,650.45 561.216,648.117 564.5,646.5C 573.649,656.817 582.982,666.983 592.5,677C 601.282,678.607 606.948,675.107 609.5,666.5C 608.946,664.39 608.112,662.39 607,660.5C 598.686,650.685 590.186,641.018 581.5,631.5C 583.548,628.785 585.882,626.452 588.5,624.5 Z"/></g>
<g><path style="opacity:1" fill="#2f282b" d="M 199.5,634.5 C 206.797,639.16 213.797,644.327 220.5,650C 231.641,659.055 232.308,668.721 222.5,679C 219.938,680.141 217.272,680.974 214.5,681.5C 211.054,680.638 207.72,679.805 204.5,679C 206.027,681.757 206.693,684.757 206.5,688C 206.095,695.221 205.261,702.387 204,709.5C 201,707.167 198,704.833 195,702.5C 195.083,692.503 195.083,682.503 195,672.5C 193.142,669.588 190.642,668.088 187.5,668C 182.616,673.378 177.95,678.878 173.5,684.5C 170.36,682.527 167.36,680.36 164.5,678C 176.38,663.626 188.047,649.126 199.5,634.5 Z"/></g>
<g><path style="opacity:1" fill="#f7ef05" d="M 202.5,648.5 C 207.722,651.542 212.555,655.209 217,659.5C 219.951,667.553 217.118,671.387 208.5,671C 203.714,667.882 199.214,664.382 195,660.5C 194.685,659.092 195.018,657.759 196,656.5C 198.415,653.986 200.581,651.319 202.5,648.5 Z"/></g>
<g><path style="opacity:1" fill="#2e272b" d="M 542.5,661.5 C 549.968,660.318 555.968,662.652 560.5,668.5C 558.096,671.065 555.262,673.065 552,674.5C 543.097,670.015 536.597,672.515 532.5,682C 533.829,685.994 536.496,687.327 540.5,686C 546.167,684.333 551.833,682.667 557.5,681C 571.813,679.647 578.646,686.147 578,700.5C 571.996,714.254 561.496,720.421 546.5,719C 542.502,717.663 539.168,715.33 536.5,712C 538.732,709.265 541.399,707.098 544.5,705.5C 553.812,711.909 561.312,710.242 567,700.5C 568.232,695.289 566.232,692.289 561,691.5C 556.108,692.797 551.275,694.297 546.5,696C 531.15,699.963 523.316,694.13 523,678.5C 527.493,670.505 533.993,664.838 542.5,661.5 Z"/></g>
<g><path style="opacity:1" fill="#2f272b" d="M 239.5,668.5 C 248.965,668.649 257.132,671.983 264,678.5C 268.531,683.553 269.531,689.219 267,695.5C 266.612,696.428 265.945,697.095 265,697.5C 262.384,696.385 259.884,695.051 257.5,693.5C 258.05,684.862 253.884,679.862 245,678.5C 239.402,679.362 238.069,682.362 241,687.5C 247.461,692.955 252.794,699.288 257,706.5C 258.54,718.946 253.207,726.28 241,728.5C 233.704,727.434 227.204,724.6 221.5,720C 214.191,712.864 212.691,704.697 217,695.5C 220.212,696.855 223.378,698.355 226.5,700C 223.889,710.239 227.889,716.072 238.5,717.5C 245.469,717.223 247.635,713.889 245,707.5C 239.966,702.801 235.3,697.801 231,692.5C 226.042,681.531 228.876,673.531 239.5,668.5 Z"/></g>
<g><path style="opacity:1" fill="#31292b" d="M 493.5,746.5 C 491.512,727.195 490.846,707.528 491.5,687.5C 494.518,685.438 497.852,684.272 501.5,684C 515.167,698.333 528.833,712.667 542.5,727C 539.285,728.774 535.952,730.274 532.5,731.5C 528.849,728.349 525.349,725.016 522,721.5C 515.905,724.129 509.738,726.629 503.5,729C 501.586,733.858 500.919,739.025 501.5,744.5C 498.833,745.167 496.167,745.833 493.5,746.5 Z"/></g>
<g><path style="opacity:1" fill="#2e272b" d="M 277.5,685.5 C 281.404,686.119 284.737,687.785 287.5,690.5C 280.834,707.818 273.667,724.818 266,741.5C 262.553,740.653 259.72,738.986 257.5,736.5C 264.172,719.482 270.838,702.482 277.5,685.5 Z"/></g>
<g><path style="opacity:1" fill="#2f272b" d="M 289.5,690.5 C 303.871,694.623 318.204,698.956 332.5,703.5C 331.215,706.021 330.548,708.687 330.5,711.5C 325.252,710.563 320.085,709.229 315,707.5C 314.5,707.833 314,708.167 313.5,708.5C 309.42,723.406 304.753,738.072 299.5,752.5C 296.839,751.668 294.172,750.834 291.5,750C 290.941,749.275 290.608,748.442 290.5,747.5C 294.883,732.912 298.883,718.245 302.5,703.5C 297.769,702.646 293.102,701.48 288.5,700C 287.978,699.439 287.645,698.772 287.5,698C 288.249,695.503 288.916,693.003 289.5,690.5 Z"/></g>
<g><path style="opacity:1" fill="#2f272b" d="M 463.5,697.5 C 478.233,696.734 485.066,703.734 484,718.5C 483.492,723.012 481.325,726.512 477.5,729C 471.041,731.782 464.374,733.949 457.5,735.5C 457.167,736 456.833,736.5 456.5,737C 458.182,743.372 459.849,749.705 461.5,756C 457.93,757.31 454.263,758.143 450.5,758.5C 446.244,740.218 442.244,721.884 438.5,703.5C 447.014,701.735 455.348,699.735 463.5,697.5 Z"/></g>
<g><path style="opacity:1" fill="#f6ef05" d="M 500.5,698.5 C 505.996,703.163 510.996,708.33 515.5,714C 510.686,716.41 505.686,718.244 500.5,719.5C 500.5,712.5 500.5,705.5 500.5,698.5 Z"/></g>
<g><path style="opacity:1" fill="#2f282b" d="M 340.5,704.5 C 344.869,704.467 349.202,704.8 353.5,705.5C 358.314,725.075 363.314,744.575 368.5,764C 364.806,764.02 361.14,763.52 357.5,762.5C 355.896,758.657 354.729,754.657 354,750.5C 353.25,749.874 352.416,749.374 351.5,749C 344.486,748.044 337.486,747.377 330.5,747C 328.626,750.581 326.626,754.081 324.5,757.5C 323.667,757.833 322.833,758.167 322,758.5C 318.849,757.907 315.682,757.407 312.5,757C 322.24,739.684 331.574,722.184 340.5,704.5 Z"/></g>
<g><path style="opacity:1" fill="#2f282b" d="M 390.5,706.5 C 399.356,705.654 406.856,708.321 413,714.5C 414.908,717.206 415.741,720.206 415.5,723.5C 411.774,723.823 408.107,723.489 404.5,722.5C 402.604,717.799 399.104,715.799 394,716.5C 387.434,715.57 384.434,718.236 385,724.5C 385.903,725.701 387.069,726.535 388.5,727C 396.399,728.579 404.065,730.913 411.5,734C 417.261,739.237 419.095,745.737 417,753.5C 412.461,762.365 405.128,766.365 395,765.5C 381.799,765.792 374.299,759.459 372.5,746.5C 376.198,746.448 379.865,746.114 383.5,745.5C 384.898,753.883 389.898,757.383 398.5,756C 406.488,754.243 408.488,749.91 404.5,743C 395.952,740.959 387.618,738.292 379.5,735C 370.674,725.124 371.674,716.457 382.5,709C 385.31,708.218 387.977,707.384 390.5,706.5 Z"/></g>
<g><path style="opacity:1" fill="#f5ed07" d="M 460.5,707.5 C 469.711,706.542 473.545,710.542 472,719.5C 470.786,721.049 469.286,722.215 467.5,723C 463.494,724.168 459.494,725.335 455.5,726.5C 454.914,726.291 454.414,725.957 454,725.5C 452.831,720.823 451.664,716.156 450.5,711.5C 450.709,710.914 451.043,710.414 451.5,710C 454.678,709.34 457.678,708.507 460.5,707.5 Z"/></g>
<g><path style="opacity:1" fill="#0c062b" d="M 491.5,687.5 C 490.846,707.528 491.512,727.195 493.5,746.5C 492.828,747.267 491.995,747.934 491,748.5C 490.171,727.996 490.337,707.663 491.5,687.5 Z"/></g>
<g><path style="opacity:1" fill="#f0e80b" d="M 344.5,717.5 C 345.586,717.62 346.253,718.287 346.5,719.5C 348.472,726.052 349.805,732.718 350.5,739.5C 345.823,739.165 341.156,738.665 336.5,738C 336.043,737.586 335.709,737.086 335.5,736.5C 339.32,730.528 342.32,724.195 344.5,717.5 Z"/></g>
</svg>
